<svg width="0" height="0" class="hidden">
    <symbol xmlns="http://www.w3.org/2000/svg" id="open-app" viewBox="0 0 24 24">
        <g>
            <path d="M0 0h24v24H0z" fill="none" />
            <path d="M19 19H5V5h7V3H5c-1.11 0-2 .9-2 2v14c0 1.1.89 2 2 2h14c1.1 0 2-.9 2-2v-7h-2v7zM14 3v2h3.59l-9.83 9.83 1.41 1.41L19 6.41V10h2V3h-7z" />
        </g>
    </symbol>
    <symbol xmlns="http://www.w3.org/2000/svg" id="btc" viewBox="0 0 32 32">
        <g fill="none" fill-rule="evenodd">
            <circle cx="16" cy="16" r="16" fill="#F7931A"></circle>
            <path fill="#FFF" fill-rule="nonzero" d="M23.189 14.02c.314-2.096-1.283-3.223-3.465-3.975l.708-2.84-1.728-.43-.69 2.765c-.454-.114-.92-.22-1.385-.326l.695-2.783L15.596 6l-.708 2.839c-.376-.086-.746-.17-1.104-.26l.002-.009-2.384-.595-.46 1.846s1.283.294 1.256.312c.7.175.826.638.805 1.006l-.806 3.235c.048.012.11.03.18.057l-.183-.045-1.13 4.532c-.086.212-.303.531-.793.41.018.025-1.256-.313-1.256-.313l-.858 1.978 2.25.561c.418.105.828.215 1.231.318l-.715 2.872 1.727.43.708-2.84c.472.127.93.245 1.378.357l-.706 2.828 1.728.43.715-2.866c2.948.558 5.164.333 6.097-2.333.752-2.146-.037-3.385-1.588-4.192 1.13-.26 1.98-1.003 2.207-2.538zm-3.95 5.538c-.533 2.147-4.148.986-5.32.695l.95-3.805c1.172.293 4.929.872 4.37 3.11zm.535-5.569c-.487 1.953-3.495.96-4.47.717l.86-3.45c.975.243 4.118.696 3.61 2.733z"></path>
        </g>
    </symbol>
    <symbol xmlns="http://www.w3.org/2000/svg" id="logo" viewBox="0 0 27 32">
        <g fill="none" fill-rule="evenodd">
            <path d="M15.2 1L26 7a3 3 0 0 1 1.5 2.7v12.2c0 1.1-.6 2.1-1.5 2.6l-10.7 6.2a3 3 0 0 1-3 0L1.6 24.5A3 3 0 0 1 .1 22V9.7C.1 8.6.7 7.6 1.6 7L12.2.9c1-.5 2.1-.5 3 0z" fill="#EE2722" fill-rule="nonzero" />
            <path d="M13.8 24.2l-1.2-1c-4.2-3.9-7-6.4-7-9.5 0-2.6 2-4.5 4.5-4.5a5 5 0 0 1 3.7 1.7 5 5 0 0 1 3.7-1.7c2.6 0 4.5 2 4.5 4.5 0 3-2.7 5.6-7 9.5l-1.2 1z" fill="#FFF" />
        </g>
    </symbol>
    <symbol id="github">
        <path d="M12 .297c-6.63 0-12 5.373-12 12 0 5.303 3.438 9.8 8.205 11.385.6.113.82-.258.82-.577 0-.285-.01-1.04-.015-2.04-3.338.724-4.042-1.61-4.042-1.61C4.422 18.07 3.633 17.7 3.633 17.7c-1.087-.744.084-.729.084-.729 1.205.084 1.838 1.236 1.838 1.236 1.07 1.835 2.809 1.305 3.495.998.108-.776.417-1.305.76-1.605-2.665-.3-5.466-1.332-5.466-5.93 0-1.31.465-2.38 1.235-3.22-.135-.303-.54-1.523.105-3.176 0 0 1.005-.322 3.3 1.23.96-.267 1.98-.399 3-.405 1.02.006 2.04.138 3 .405 2.28-1.552 3.285-1.23 3.285-1.23.645 1.653.24 2.873.12 3.176.765.84 1.23 1.91 1.23 3.22 0 4.61-2.805 5.625-5.475 5.92.42.36.81 1.096.81 2.22 0 1.606-.015 2.896-.015 3.286 0 .315.21.69.825.57C20.565 22.092 24 17.592 24 12.297c0-6.627-5.373-12-12-12" />
    </symbol>
</svg>